<svg xmlns="http://www.w3.org/2000/svg" width="22" height="22" viewBox="0 0 1.43 1.43"><path d="M1.251.275H.907v-.11a.11.11 0 0 0-.11-.11H.631a.11.11 0 0 0-.11.11v.11H.179a.042.042 0 0 0-.04.042V.4a.044.044 0 0 0 .042.042h1.073A.042.042 0 0 0 1.296.4V.317a.042.042 0 0 0-.044-.041zM.633.193C.633.176.644.165.66.165h.11c.017 0 .027.011.027.027v.083H.631V.193zm.508.357H.289a.042.042 0 0 0-.043.042v.646c0 .077.061.137.137.137h.66a.136.136 0 0 0 .137-.137V.592A.042.042 0 0 0 1.139.55zm-.509.605c0 .017-.011.027-.027.027H.55c-.017 0-.027-.011-.027-.027V.77C.523.753.534.743.55.743h.055c.017 0 .027.011.027.027v.385zm.275 0c0 .017-.011.027-.027.027H.825c-.017 0-.027-.011-.027-.027V.77C.798.753.81.743.825.743H.88c.017 0 .027.011.027.027v.385z"/></svg>