<svg width="24" height="24" viewBox="0 0 0.72 0.72" fill="none" xmlns="http://www.w3.org/2000/svg"><path d="m.494.163.062.062M.535.107.363.278a.062.062 0 0 0-.017.034l-.017.08.079-.018A.07.07 0 0 0 .442.356L.613.185A.055.055 0 1 0 .535.106Z" stroke="#000" stroke-width=".06" stroke-linecap="round" stroke-linejoin="round"/><path d="M.571.451v.088a.06.06 0 0 1-.06.06H.18A.06.06 0 0 1 .12.54V.211A.06.06 0 0 1 .18.152h.088" stroke="#000" stroke-width=".073" stroke-linecap="round" stroke-linejoin="round"/></svg>