<svg style="width:1em;height:1em;vertical-align:middle;fill:currentColor;overflow:hidden" viewBox="0 0 256 256" xmlns="http://www.w3.org/2000/svg" width="256" height="256"><path d="M161.45 136.225 103.9 60 48.775 98.5c-5.2 3.625-6.3 10.85-2.45 15.875l35.55 46.375 79.575-24.525z" fill="#8F3694"/><path d="M161.45 136.225 103.9 60l44.85-29.8c5.325-3.525 12.475-2.1 16.05 3.175L200.175 85.8l-38.725 50.425z" fill="#8F3694"/><path d="m200.175 85.8-.025-.05v.05zM140.55 72.25a14.162 14.162 0 0 1 9.6-7.275l31.475-6.675-18.65-27.65a12.396 12.396 0 0 0-12.675-5.2l-71.6 14.5 44.375 65.725L140.55 72.25z" fill="#CAC134"/><path d="M94.375 89.35 123 105.8l.075-.125L78.7 39.95l-35.075 58a12.344 12.344 0 0 0 .775 13.9l11.95 15.6 26.225-35.6a9.03 9.03 0 0 1 11.8-2.5zm28.725 16.525.05-.05-.075.025zM81.875 160.75l1.95-2.625-1.95 2.6zM204.2 53.5l-22.575 4.8 18.525 27.45 8.5-27.375c.875-2.8-1.6-5.475-4.45-4.875z" fill="#FFBA3B"/><path d="m123.15 105.825 77-20.025-77 20z" fill="#FE506B"/><path d="M150.15 64.975c-4.125.875-7.625 3.55-9.6 7.275l-17.5 33.425.075.125 77-20v-.05L181.6 58.275l-31.45 6.7z" fill="#CAC134"/><path d="M150.15 64.975c-4.125.875-7.625 3.55-9.6 7.275l-17.5 33.425.075.125 77-20v-.05L181.6 58.275l-31.45 6.7z" fill="#FF7C20"/><path d="m123.075 105.675-.075.125.075.05.075-.025v-.025z" fill="#FFBA3B"/><path d="m123.075 105.675-.075.125.075.05.075-.025v-.025z" fill="#FE506B"/><path d="M50.425 135.425c-2.4 3.25-1.35 7.875 2.225 9.75l29.2 15.575v-.025l-25.525-33.3-5.9 8z" fill="#FFBA3B"/><path d="m123.2 105.925-.1-.05-39.275 52.25z" fill="#FE506B"/><path d="m122.975 105.875.025-.05-28.625-16.45a9.05 9.05 0 0 0-11.8 2.475l-26.25 35.575 25.525 33.3 1.975-2.6L123.1 105.85l-.05-.025-.075.05z" fill="#FFBA3B"/><path d="m122.975 105.875.025-.05-28.625-16.45a9.05 9.05 0 0 0-11.8 2.475l-26.25 35.575 25.525 33.3 1.975-2.6L123.1 105.85l-.05-.025-.075.05z" fill="#FF7C20"/><path d="m123.075 105.85-.075-.05-.025.075z" fill="#FFBA3B"/><path d="m123.075 105.85-.075-.05-.025.075z" fill="#FE506B"/><path d="m123.075 105.85-.075-.05-.025.075z" fill="#FE506B"/><path d="m148.75 170.125-62.575 20.95c-3.6 1.225-7.25-1.675-6.875-5.45l2.575-24.875 79.575-24.525-3.5 23.675c-1.075 4.75-4.55 8.625-9.2 10.225z" fill="#FFBA3B"/><path d="M212.875 83.65 186.45 114a34.082 34.082 0 0 1-6.175 5.975l-18.875 16.3 38.725-50.45 10.55-4.925c1.75-.825 3.4 1.25 2.2 2.75z" fill="#FFBA3B"/><path d="M66.8 212.25a69.525 18.1 0 1 0 139.05 0 69.525 18.1 0 1 0-139.05 0Z" fill="#8F3694"/><path d="m127.85 167.475 3.675-1.4c1.325-.525 2.85-.25 3.95.675l5.65 4.8c2.15 1.825 1.75 5.25-.775 6.5l-3.4 1.7c-1.4.7-3.1.5-4.3-.525l-5.925-5.075c-2.275-1.975-1.625-5.6 1.125-6.675zm28.175 42.175 2.75-1.55c1-.575 2.25-.725 3.275-.45l5.25 1.525c2 .575 2.175 2.6.325 3.85l-2.5 1.675c-1.025.7-2.425.925-3.55.6l-5.525-1.65c-2.075-.625-2.1-2.825-.025-4z" fill="#FE506B"/></svg>