<svg viewBox="0 0 30 30" fill="#66FCF1" xmlns="http://www.w3.org/2000/svg">
	<path d="m29.913 7.572-7.5-7.5a.222.222 0 0 0-.257-.053.232.232 0 0 0-.076.053l-5.619 5.619a.21.21 0 0 0-.053.075.206.206 0 0 0-.018.091.22.22 0 0 0 .071.167l.405.405-8.023 2.476c-1.31.405-2.834 1.786-3.357 3.071l-5.477 14.5c-.024.095 0 .191.048.238l1.262 1.262 8.714-8.69a3.362 3.362 0 0 1-.643-1.952 3.23 3.23 0 0 1 2.013-3.016 3.264 3.264 0 0 1 1.249-.246 3.216 3.216 0 0 1 2.309.952 3.259 3.259 0 0 1 .953 2.31 3.207 3.207 0 0 1-.953 2.309 3.26 3.26 0 0 1-2.309.952 3.294 3.294 0 0 1-1.976-.666l-8.69 8.738 1.285 1.262a.216.216 0 0 0 .167.071c.024 0 .047 0 .071-.024L18.033 24.5c1.285-.524 2.643-2.048 3.071-3.357l2.476-8.024.381.381a.217.217 0 0 0 .167.072.214.214 0 0 0 .166-.072l5.619-5.619a.2.2 0 0 0 .054-.075.206.206 0 0 0 .018-.091c0-.072-.024-.095-.072-.143Z" />
</svg>