<svg viewBox="0 0 30 30" fill="#FF8989" xmlns="http://www.w3.org/2000/svg">
	<g clip-path="url(#a)">
		<path d="M26.25 2.5H3.75A1.25 1.25 0 0 0 2.5 3.75v10h13.25l-3.5-3.5a1.25 1.25 0 0 1 .125-1.937 1.435 1.435 0 0 1 1.687.187l5.563 5.625a1.19 1.19 0 0 1 0 1.75l-5.563 5.563a1.25 1.25 0 0 1-1.687.187 1.18 1.18 0 0 1-.523-.907 1.188 1.188 0 0 1 .398-.968l3.5-3.5H2.5v10a1.25 1.25 0 0 0 1.25 1.25h22.5a1.254 1.254 0 0 0 1.25-1.25V3.75a1.254 1.254 0 0 0-1.25-1.25Z" />
	</g>
	<defs>
		<clipPath id="a">
			<path fill="transparent" d="M0 0h30v30H0V0z"/>
		</clipPath>
	</defs>
</svg>
