<svg viewBox="0 0 30 30" fill="#66FCF1" xmlns="http://www.w3.org/2000/svg">
	<path fill-rule="evenodd" clip-rule="evenodd" d="M2.5 7.5a3.752 3.752 0 0 1 3.75-3.75h17.5a3.76 3.76 0 0 1 2.652 1.098A3.76 3.76 0 0 1 27.5 7.5v15a3.752 3.752 0 0 1-3.75 3.75H6.25a3.756 3.756 0 0 1-2.652-1.098A3.76 3.76 0 0 1 2.5 22.5v-15Zm6.25 1.25A1.25 1.25 0 0 0 7.5 10v5a1.243 1.243 0 0 0 .366.884 1.252 1.252 0 0 0 .884.366h5a1.243 1.243 0 0 0 .884-.366A1.252 1.252 0 0 0 15 15v-5a1.252 1.252 0 0 0-1.25-1.25h-5Zm1.25 5v-2.5h2.5v2.5H10Zm8.75-5A1.252 1.252 0 0 0 17.5 10a1.252 1.252 0 0 0 1.25 1.25h2.5A1.254 1.254 0 0 0 22.5 10a1.252 1.252 0 0 0-1.25-1.25h-2.5Zm0 5A1.252 1.252 0 0 0 17.5 15a1.252 1.252 0 0 0 1.25 1.25h2.5A1.254 1.254 0 0 0 22.5 15a1.252 1.252 0 0 0-1.25-1.25h-2.5Zm-10 5a1.25 1.25 0 1 0 0 2.5h12.5A1.254 1.254 0 0 0 22.5 20a1.252 1.252 0 0 0-1.25-1.25H8.75Z" />
</svg>
